<?xml version="1.0" standalone="no"?>
<!DOCTYPE svg PUBLIC "-//W3C//DTD SVG 20010904//EN"
 "http://www.w3.org/TR/2001/REC-SVG-20010904/DTD/svg10.dtd">
<svg version="1.0" xmlns="http://www.w3.org/2000/svg"
 width="100vw" height="100vh" viewBox="0 0 1000.000000 1000.000000"
 preserveAspectRatio="xMidYMid meet" style="background: : #D3D3D3;">

<g transform="translate(0.000000,1000.000000) scale(0.100000,-0.100000)"
fill="#000000" stroke="none">
<path d="M8975 9270 c-36 -39 -197 -155 -313 -225 -297 -178 -668 -312 -1298
-471 -583 -147 -1132 -242 -2129 -369 -456 -58 -595 -79 -773 -117 -304 -63
-516 -137 -768 -267 -1041 -536 -1774 -1678 -1919 -2986 -65 -595 -36 -1206
86 -1805 31 -149 95 -405 108 -428 5 -9 54 38 154 147 652 709 1399 1412 2067
1943 679 540 1381 971 1885 1157 l60 23 -65 -59 c-1030 -924 -2251 -2105
-2826 -2733 -360 -394 -694 -801 -1399 -1705 -551 -707 -745 -950 -998 -1247
l-108 -128 600 0 c573 0 599 1 612 19 8 10 129 162 270 337 141 176 338 427
439 559 214 282 392 504 403 504 5 1 48 -23 96 -53 122 -75 180 -103 382 -184
394 -157 748 -251 1114 -294 139 -16 519 -16 650 1 744 93 1389 436 1873 996
482 559 835 1275 1202 2441 492 1564 707 2861 687 4154 -4 281 -8 355 -27 460
-11 69 -26 176 -33 239 l-12 113 -20 -22z"/>
</g>
</svg>
